# xmcd CD database file
#
# Track frame offsets:
#	150
#	20324
#	35922
#	52935
#	69283
#	85925
#	102345
#	122135
#	139823
#	155039
#	173334
#	197195
#	213468
#	232246
#	249342
#	264265
#	278580
#	294778
#
# Disc length: 4220 seconds
#
# Revision: 1
# Processed by: cddbd v1.5.2PL0 Copyright (c) Steve Scherf et al.
# Submitted via: CDex 1.51
#
DISCID=fb107a12
DTITLE=Various Artist - MRH-105
DYEAR=1900
DGENRE=Blues
TTITLE0=Daft Punk - Get Lucky
TTITLE1=PSY - Gentleman
TTITLE2=Paramore - Still Into You
TTITLE3=Fall Out Boy - Young Volcanoes
TTITLE4=Olly Murs - Dear Darlin'
TTITLE5=Wanted The - Walks Like Rihanna
TTITLE6=Passenger - Let Her Go
TTITLE7=The 1975 - Chocolate
TTITLE8=Union J - Carry On
TTITLE9=Jason Derulo - The Other Side
TTITLE10=Rudimental Ft Ella Eyre - Waiting All Night
TTITLE11=Armin Van Buuren Ft Trevor Guthrie - This Is What It Feels Like
TTITLE12=Disclosure Ft Eliza Doolittle - You and Me
TTITLE13=David Guetta Ft NE-YO and Akon - Play Hard
TTITLE14=Bonnie Tyler - Believe In Me
TTITLE15=Bastille - Laura Palmer
TTITLE16=Linkin Park - Castle Of Glass
TTITLE17=Thirty Seconds To Mars - Up In The Air
EXTD=
EXTT0=
EXTT1=
EXTT2=
EXTT3=
EXTT4=
EXTT5=
EXTT6=
EXTT7=
EXTT8=
EXTT9=
EXTT10=
EXTT11=
EXTT12=
EXTT13=
EXTT14=
EXTT15=
EXTT16=
EXTT17=
PLAYORDER=
